<svg width="256" height="256" viewBox="0 0 256 256" fill="none" xmlns="http://www.w3.org/2000/svg">
<path d="M16.2904 0H239.407C248.21 0.000259031 255.357 7.12973 255.453 15.9414C256.795 138.41 264.886 256 127.834 256V232C158.74 232 178.692 225.384 192.048 216.041C205.271 206.791 214.503 193.137 220.804 174.282C227.224 155.073 230.24 131.501 231.398 104.103C232.46 78.9887 231.933 52.2505 231.574 24H24.1739C23.7059 83.8869 23.2013 135.921 36.2787 174.129C42.7675 193.087 52.1028 206.833 65.2275 216.113C78.4214 225.443 97.9083 232 127.834 232V256L126.274 255.994C-5.76934 255.081 -0.625337 137.951 0.258968 15.9717C0.322936 7.14795 7.4755 0.000173022 16.2904 0Z" fill="black"/>
<path d="M198.231 64.442C204.053 61.2873 211.328 63.4554 214.48 69.2838C217.631 75.1122 215.466 82.3947 209.644 85.5495L134.163 126.446C130.306 128.536 125.656 128.536 121.799 126.446L46.3193 85.5495C40.4969 82.3948 38.3312 75.1122 41.4824 69.2838C44.6339 63.4554 51.909 61.2883 57.7314 64.443L127.981 102.505L198.231 64.442Z" fill="black"/>
</svg>
